<?xml version="1.0" encoding="utf-8"?>
<!-- Generator: Adobe Illustrator 23.1.0, SVG Export Plug-In . SVG Version: 6.00 Build 0)  -->
<svg version="1.1" id="Layer_1" xmlns="http://www.w3.org/2000/svg" xmlns:xlink="http://www.w3.org/1999/xlink" x="0px" y="0px"
	 viewBox="0 0 570 570" style="enable-background:new 0 0 500 500;" xml:space="preserve">
<style type="text/css">
	.st0{fill:#d9bca3;}
</style>
<g>
	<path class="st0" d="M62,250L62,250c0-1.7,1.3-3,3-3h49c1.7,0,3,1.3,3,3l0,0c0,1.7-1.3,3-3,3H65C63.3,253,62,251.7,62,250z"/>
</g>
<g>
	<g>
		<path class="st0" d="M89,347L89,347c-0.9-1.4-0.4-3.3,1-4.1l42-25.3c1.4-0.9,3.3-0.4,4.1,1l0,0c0.9,1.4,0.4,3.3-1,4.1l-42,25.3
			C91.7,348.9,89.9,348.4,89,347z"/>
	</g>
</g>
<g>
	<g>
		<path class="st0" d="M161.6,415.8L161.6,415.8c-1.5-0.8-2-2.6-1.2-4.1l23.1-43.2c0.8-1.5,2.6-2,4.1-1.2l0,0c1.5,0.8,2,2.6,1.2,4.1
			l-23.1,43.2C164.9,416.1,163,416.6,161.6,415.8z"/>
	</g>
</g>
<g>
	<path class="st0" d="M438,250L438,250c0,1.7-1.3,3-3,3h-49c-1.7,0-3-1.3-3-3l0,0c0-1.7,1.3-3,3-3h49C436.7,247,438,248.3,438,250z"
		/>
</g>
<g>
	<g>
		<path class="st0" d="M411,153L411,153c0.9,1.4,0.4,3.3-1,4.1l-42,25.3c-1.4,0.9-3.3,0.4-4.1-1l0,0c-0.9-1.4-0.4-3.3,1-4.1l42-25.3
			C408.3,151.1,410.1,151.6,411,153z"/>
	</g>
</g>
<g>
	<g>
		<path class="st0" d="M338.4,84.2L338.4,84.2c1.5,0.8,2,2.6,1.2,4.1l-23.1,43.2c-0.8,1.5-2.6,2-4.1,1.2l0,0c-1.5-0.8-2-2.6-1.2-4.1
			l23.1-43.2C335.1,83.9,337,83.4,338.4,84.2z"/>
	</g>
</g>
</svg>
