<?xml version="1.0" encoding="utf-8"?>
<!-- Generator: Adobe Illustrator 23.1.0, SVG Export Plug-In . SVG Version: 6.00 Build 0)  -->
<svg version="1.1" id="Layer_1" xmlns="http://www.w3.org/2000/svg" xmlns:xlink="http://www.w3.org/1999/xlink" x="0px" y="0px"
	 viewBox="0 0 500 500" style="enable-background:new 0 0 500 500;" xml:space="preserve">
<style type="text/css">
	.st0{fill:none;stroke:#142126;stroke-width:25;stroke-miterlimit:10;}
	.st1{fill:none;stroke:#000000;stroke-miterlimit:10;}
</style>
<polyline class="st0" points="-360.36,269 -597.36,32 -360.36,-205 "/>
<polyline class="st1" points="-401.16,858.88 -401.1,802.36 -437.6,775.84 -474.1,802.36 -474.03,858.88 "/>
<rect x="-445.6" y="831.88" class="st1" width="16" height="27"/>
<polyline class="st1" points="-81.16,460.88 -81.1,404.36 -117.6,377.84 -154.1,404.36 -154.03,460.88 "/>
<rect x="-125.6" y="433.88" class="st1" width="16" height="27"/>
<g>
	<polyline class="st0" points="1191.32,865.72 1191.68,549.41 987.4,401 783.13,549.41 783.48,865.72 	"/>
	<rect x="942.63" y="714.62" class="st0" width="89.54" height="151.11"/>
</g>
<circle class="st1" cx="-308.83" cy="792.99" r="17.15"/>
<path class="st1" d="M-264.69,858.88c-1.41-23.16-20.63-41.5-44.14-41.5c-23.51,0-42.73,18.34-44.14,41.5"/>
<g>
	<rect x="-232.6" y="775.88" class="st1" width="36.25" height="36.25"/>
	<rect x="-186.35" y="775.88" class="st1" width="36.25" height="36.25"/>
	<rect x="-232.6" y="822.13" class="st1" width="36.25" height="36.25"/>
	<rect x="-186.35" y="822.13" class="st1" width="36.25" height="36.25"/>
</g>
<rect x="-117.6" y="775.88" class="st1" width="101" height="17"/>
<rect x="-117.6" y="841.88" class="st1" width="101" height="17"/>
<rect x="-117.6" y="819.88" class="st1" width="101" height="17"/>
<rect x="-117.6" y="797.88" class="st1" width="101" height="17"/>
<g>
	<circle class="st1" cx="49.1" cy="812.57" r="36.07"/>
	<line class="st1" x1="74.89" y1="838" x2="93.65" y2="856.76"/>
</g>
<g>
	<circle class="st1" cx="-562.97" cy="852.78" r="6.11"/>
	<circle class="st1" cx="-535.17" cy="852.78" r="6.11"/>
	<polygon class="st1" points="-523.49,836.01 -573.3,836.01 -590.6,796.45 -518.27,796.45 	"/>
	<polyline class="st1" points="-491.06,776.38 -507.98,776.38 -517.22,843.19 -578.94,843.19 	"/>
	<line class="st1" x1="-569.07" y1="830.19" x2="-529.62" y2="830.19"/>
</g>
<path class="st1" d="M-477.53,932.35L-477.53,932.35c-10.62-10.62-27.84-10.62-38.46,0l-2.6,2.6l-2.6-2.6
	c-10.62-10.62-27.84-10.62-38.46,0h0c-10.62,10.62-10.62,27.84,0,38.46l2.6,2.6l38.46,38.46l38.46-38.46l2.6-2.6
	C-466.91,960.19-466.91,942.97-477.53,932.35z"/>
<g>
	<rect x="20.59" y="142.08" class="st0" width="460.41" height="280.25"/>
	<circle class="st0" cx="250.8" cy="282.2" r="88.08"/>
	<rect x="337.87" y="102.04" class="st0" width="116.1" height="40.04"/>
</g>
</svg>
