<?xml version="1.0" encoding="utf-8"?>
<!-- Generator: Adobe Illustrator 23.1.0, SVG Export Plug-In . SVG Version: 6.00 Build 0)  -->
<svg version="1.1" id="Layer_1" xmlns="http://www.w3.org/2000/svg" xmlns:xlink="http://www.w3.org/1999/xlink" x="0px" y="0px"
	 viewBox="0 0 500 500" style="enable-background:new 0 0 500 500;" xml:space="preserve">
<style type="text/css">
	.st0{fill:none;stroke:#1b4159;stroke-width:25;stroke-miterlimit:10;}
	.st1{fill:none;stroke:#000000;stroke-miterlimit:10;}
	.st2{fill:#FFFFFF;stroke:#142126;stroke-width:25;stroke-miterlimit:10;}
</style>
<path class="st0" d="M411.7,81.5l-69,7.5l-28-63.6c-20.8-6-42.7-9.3-65.5-9.3s-44.7,3.2-65.5,9.3l-28,63.6l-69-7.5
	C55.1,111.9,31.9,151,21.2,194.9l41,56.1l-41,56.1c10.8,44,33.9,83.1,65.5,113.4l69-7.5l28,63.6c20.8,6,42.7,9.3,65.5,9.3
	s44.7-3.2,65.5-9.3l28-63.6l69,7.5c31.6-30.3,54.8-69.4,65.5-113.4l-41-56.1l41-56.1C466.5,151,443.3,111.9,411.7,81.5z"/>
<circle class="st0" cx="249.2" cy="251" r="98.4"/>
</svg>
